<?xml version="1.0" encoding="UTF-8"?>
<svg width="45px" height="56px" viewBox="0 0 45 56" version="1.1" xmlns="http://www.w3.org/2000/svg" xmlns:xlink="http://www.w3.org/1999/xlink">
    <!-- Generator: Sketch 63.1 (92452) - https://sketch.com -->
    <title>1.0_landing/icn_personal</title>
    <desc>Created with Sketch.</desc>
    <g id="Page-1" stroke="none" stroke-width="1" fill="none" fill-rule="evenodd">
        <g id="Artboard" transform="translate(-157.000000, -203.000000)">
            <g id="Group-7" transform="translate(153.000000, 198.777796)">
                <path d="M9.41821111,43.0049892 C16.7852306,40.9915824 22.4714635,39.9848789 26.4769098,39.9848789 C30.482356,39.9848789 36.1685885,40.9915822 43.5356074,43.0049889 C46.1444506,43.7179837 47.9538197,46.0882101 47.9538197,48.7927295 L47.9538197,58.5437472 L47.9538197,58.5437472 L5,58.5437472 L5,48.7927263 C5.00000357,46.0882096 6.80937091,43.7179854 9.41821111,43.0049892 Z" id="Rectangle" stroke="#FFFFFF" stroke-width="2" stroke-linecap="round" stroke-linejoin="round"></path>
                <g id="Group-5">
                    <rect id="Rectangle" x="0" y="0" width="64" height="64"></rect>
                    <g id="Group-6" transform="translate(9.000000, 5.000000)">
                        <g id="Group-4" transform="translate(0.775839, 0.000000)">
                            <g id="Group-3" transform="translate(0.177885, 0.167763)">
                                <g id="Group-2">
                                    <g id="Group-12" transform="translate(0.189461, 0.000000)">
                                        <g id="Group" transform="translate(8.076923, 30.085675)"></g>
                                    </g>
                                </g>
                            </g>
                        </g>
                        <path d="M5.21297364,15.9745085 C4.72786448,15.9745085 4.00020074,15.9745085 3.02998242,15.9745085 C2.11173357,15.9745085 1.3673458,15.2323595 1.3673458,14.3168723 L1.3673458,9.46236621 C1.3673458,6.71590461 3.60050912,4.48945757 6.35525567,4.48945757" id="Path" stroke="#FFFFFF" stroke-width="2"></path>
                        <path d="M26.7480738,10.8165958 L25.3446895,10.8165958 L9.0961147,10.8165958 C6.59492809,10.8165958 4.56731572,8.80219134 4.56731572,6.3172975 L4.56731572,5.49217948 C4.56731572,2.55158554 6.96676819,0.167763158 9.9266428,0.167763158 L21.7365289,0.167763158 C27.6562782,0.167763158 32.4551831,4.93540793 32.4551831,10.8165958 L32.4551831,17.058022" id="Path" stroke="#FFFFFF" stroke-width="2" fill="#FF671D"></path>
                        <polygon id="Rectangle" stroke="#FFFFFF" stroke-width="2" fill="#FF671D" stroke-linejoin="round" points="9.54507021 29.5361367 17.3815836 29.5361367 17.3815836 36.0187026 13.4633269 38.3794369 9.54507021 36.0187026"></polygon>
                        <polygon id="Rectangle-Copy" stroke="#FFFFFF" stroke-width="2" fill="#FF671D" stroke-linejoin="round" points="17.3815836 29.5361367 25.2180971 29.5361367 25.2180971 36.0187026 21.2998403 38.3794369 17.3815836 36.0187026"></polygon>
                        <path d="M29.9846453,21.8361082 C31.734621,21.8361082 33.1532567,20.4217391 33.1532567,18.6770264 C33.1532567,16.9323138 31.734621,15.5179447 29.9846453,15.5179447" id="Path-Copy-7" stroke="#FFFFFF" stroke-width="2" fill="#FF671D"></path>
                        <path d="M1.63644626,21.8361082 C3.38642204,21.8361082 4.8050577,20.4217391 4.8050577,18.6770264 C4.8050577,16.9323138 3.38642204,15.5179447 1.63644626,15.5179447" id="Path-Copy" stroke="#FFFFFF" stroke-width="2" fill="#FF671D" transform="translate(3.220752, 18.677026) scale(-1, 1) translate(-3.220752, -18.677026) "></path>
                        <path d="M27.0611865,10.0109564 L7.76535788,10.0109564 C7.21307313,10.0109564 6.71307313,10.234814 6.35114432,10.5967428 C5.98921551,10.9586716 5.76535788,11.4586716 5.76535788,12.0109564 L5.76535788,23.4772344 C5.76535788,26.6937171 7.0690951,29.6056957 9.176953,31.7135536 C11.2848109,33.8214115 14.1967895,35.1251487 17.4132722,35.1251487 C20.6297549,35.1251487 23.5417335,33.8214115 25.6495914,31.7135536 C27.7574493,29.6056957 29.0611865,26.6937171 29.0611865,23.4772344 L29.0611865,12.0109564 C29.0611865,11.4586716 28.8373289,10.9586716 28.4754001,10.5967428 C28.1134713,10.234814 27.6134713,10.0109564 27.0611865,10.0109564 Z" id="Rectangle" stroke="#FFFFFF" stroke-width="2" fill="#FF671D"></path>
                        <ellipse id="Oval" fill="#FFFFFF" cx="17.5618137" cy="44.0721252" rx="1.20694136" ry="1.20331146"></ellipse>
                        <ellipse id="Oval-Copy" fill="#FFFFFF" cx="17.5618137" cy="47.9336207" rx="1.20694136" ry="1.20331146"></ellipse>
                    </g>
                </g>
            </g>
            <path d="M162.418211,241.782785 C169.785231,239.769379 175.471463,238.762675 179.47691,238.762675 C183.482356,238.762675 189.168588,239.769378 196.535607,241.782785 C199.144451,242.49578 200.95382,244.866006 200.95382,247.570526 L200.95382,257.321543 L200.95382,257.321543 L158,257.321543 L158,247.570523 C158.000004,244.866006 159.809371,242.495782 162.418211,241.782785 Z" id="Rectangle" stroke="#FFFFFF" stroke-width="2" stroke-linecap="round" stroke-linejoin="round"></path>
            <rect id="Rectangle" x="153" y="198.777796" width="64" height="64"></rect>
            <g id="Group-6" transform="translate(162.000000, 203.777796)">
                <g id="Group-4" transform="translate(0.775839, 0.000000)">
                    <g id="Group-3" transform="translate(0.177885, 0.167763)">
                        <g id="Group-2">
                            <g id="Group-12" transform="translate(0.189461, 0.000000)">
                                <g id="Group" transform="translate(8.076923, 30.085675)"></g>
                            </g>
                        </g>
                    </g>
                </g>
                <path d="M5.21297364,15.9745085 C4.72786448,15.9745085 4.00020074,15.9745085 3.02998242,15.9745085 C2.11173357,15.9745085 1.3673458,15.2323595 1.3673458,14.3168723 L1.3673458,9.46236621 C1.3673458,6.71590461 3.60050912,4.48945757 6.35525567,4.48945757" id="Path" stroke="#FFFFFF" stroke-width="2"></path>
                <path d="M26.7480738,10.8165958 L25.3446895,10.8165958 L9.0961147,10.8165958 C6.59492809,10.8165958 4.56731572,8.80219134 4.56731572,6.3172975 L4.56731572,5.49217948 C4.56731572,2.55158554 6.96676819,0.167763158 9.9266428,0.167763158 L21.7365289,0.167763158 C27.6562782,0.167763158 32.4551831,4.93540793 32.4551831,10.8165958 L32.4551831,17.058022" id="Path" stroke="#FFFFFF" stroke-width="2" fill="#FF671D"></path>
                <polygon id="Rectangle" stroke="#FFFFFF" stroke-width="2" fill="#FF671D" stroke-linejoin="round" points="9.54507021 29.5361367 17.3815836 29.5361367 17.3815836 36.0187026 13.4633269 38.3794369 9.54507021 36.0187026"></polygon>
                <polygon id="Rectangle-Copy" stroke="#FFFFFF" stroke-width="2" fill="#FF671D" stroke-linejoin="round" points="17.3815836 29.5361367 25.2180971 29.5361367 25.2180971 36.0187026 21.2998403 38.3794369 17.3815836 36.0187026"></polygon>
                <path d="M29.9846453,21.8361082 C31.734621,21.8361082 33.1532567,20.4217391 33.1532567,18.6770264 C33.1532567,16.9323138 31.734621,15.5179447 29.9846453,15.5179447" id="Path-Copy-7" stroke="#FFFFFF" stroke-width="2" fill="#FF671D"></path>
                <path d="M1.63644626,21.8361082 C3.38642204,21.8361082 4.8050577,20.4217391 4.8050577,18.6770264 C4.8050577,16.9323138 3.38642204,15.5179447 1.63644626,15.5179447" id="Path-Copy" stroke="#FFFFFF" stroke-width="2" fill="#FF671D" transform="translate(3.220752, 18.677026) scale(-1, 1) translate(-3.220752, -18.677026) "></path>
                <path d="M27.0611865,10.0109564 L7.76535788,10.0109564 C7.21307313,10.0109564 6.71307313,10.234814 6.35114432,10.5967428 C5.98921551,10.9586716 5.76535788,11.4586716 5.76535788,12.0109564 L5.76535788,23.4772344 C5.76535788,26.6937171 7.0690951,29.6056957 9.176953,31.7135536 C11.2848109,33.8214115 14.1967895,35.1251487 17.4132722,35.1251487 C20.6297549,35.1251487 23.5417335,33.8214115 25.6495914,31.7135536 C27.7574493,29.6056957 29.0611865,26.6937171 29.0611865,23.4772344 L29.0611865,12.0109564 C29.0611865,11.4586716 28.8373289,10.9586716 28.4754001,10.5967428 C28.1134713,10.234814 27.6134713,10.0109564 27.0611865,10.0109564 Z" id="Rectangle" stroke="#FFFFFF" stroke-width="2" fill="#FF671D"></path>
                <ellipse id="Oval" fill="#FFFFFF" cx="17.5618137" cy="44.0721252" rx="1.20694136" ry="1.20331146"></ellipse>
                <ellipse id="Oval-Copy" fill="#FFFFFF" cx="17.5618137" cy="47.9336207" rx="1.20694136" ry="1.20331146"></ellipse>
            </g>
        </g>
    </g>
</svg>