<?xml version="1.0" encoding="UTF-8"?>
<svg width="45px" height="56px" viewBox="0 0 45 56" version="1.1" xmlns="http://www.w3.org/2000/svg" xmlns:xlink="http://www.w3.org/1999/xlink">
    <!-- Generator: Sketch 63.1 (92452) - https://sketch.com -->
    <title>1.0_landing/icn_driver</title>
    <desc>Created with Sketch.</desc>
    <g id="Page-1" stroke="none" stroke-width="1" fill="none" fill-rule="evenodd">
        <g id="Artboard" transform="translate(-85.000000, -203.000000)">
            <g id="Group-5" transform="translate(81.000000, 198.777796)">
                <rect id="Rectangle" x="0" y="0" width="64" height="64"></rect>
                <g id="Group" transform="translate(5.000000, 5.000000)">
                    <path d="M4.41821111,38.0049892 C11.7852306,35.9915824 17.4714635,34.9848789 21.4769098,34.9848789 C25.482356,34.9848789 31.1685885,35.9915822 38.5356074,38.0049889 C41.1444506,38.7179837 42.9538197,41.0882101 42.9538197,43.7927295 L42.9538197,53.5437472 L42.9538197,53.5437472 L-5.32907052e-13,53.5437472 L-5.32907052e-13,43.7927263 C3.56888955e-06,41.0882096 1.80937091,38.7179854 4.41821111,38.0049892 Z" id="Rectangle" stroke="#FFFFFF" stroke-width="2" stroke-linecap="round" stroke-linejoin="round"></path>
                    <polyline id="Path" stroke="#FFFFFF" stroke-width="2" stroke-linejoin="round" points="7.47690984 54.1808946 7.47690984 46.391054 35.0065216 46.391054 35.0065216 54.1808946"></polyline>
                    <path d="M7.53712303,46.1064563 L12.6387398,42.3452014 L28.102773,42.3452014 M28.102773,42.3452014 L30.5070407,42.3452014 L34.9463084,46.3290878" id="Shape" stroke="#FFFFFF" stroke-width="2" stroke-linecap="round" stroke-linejoin="round"></path>
                    <rect id="Rectangle" stroke="#FFFFFF" stroke-width="2" fill="#FF671D" x="9.05939413" y="1" width="24.8350314" height="33.4888899" rx="12.4175157"></rect>
                    <path d="M23.583374,4.55538221 C21.4894642,4.55538221 21.9505949,5.93406895 21.9505949,5.93406895 C21.6706227,5.84466605 18.1039177,4.66713583 17.5980856,4.50009358 C17.5907952,4.4971731 17.5824569,4.49980677 17.5781668,4.50638503 C17.5738766,4.51296329 17.5748283,4.52165562 17.5804402,4.52714972 C17.6321998,4.58714376 17.735719,4.70477915 17.9027612,4.88946671 C17.9151917,4.90341152 17.9309859,4.91394101 17.948639,4.92005191 L18.0003986,4.93769722 L20.9577522,5.90583645 C20.9753984,5.91073271 20.9902742,5.92263335 20.9989246,5.93877436 L21.1600851,6.2105121 C21.1600851,6.2105121 21.1600851,6.21639387 21.1600851,6.2105121 L18.2756654,5.26942901 C18.2721536,5.26798701 18.268111,5.2691328 18.2658781,5.27220305 C18.2636452,5.2752733 18.2638007,5.27947221 18.2662546,5.2823689 L18.480351,5.51763968 C18.5008536,5.53912589 18.5262944,5.55527873 18.5544613,5.56469383 L21.2930131,6.46342819 C21.3093752,6.46830877 21.323259,6.47924757 21.3318327,6.49401339 L21.4929932,6.76692748 C21.4929932,6.76692748 21.4929932,6.77398561 21.4929932,6.77280925 L18.8685477,5.91171822 C18.8685477,5.91171822 18.8579606,5.91759999 18.8614896,5.92230541 L19.1085239,6.18110326 C19.1182188,6.19197553 19.1309028,6.19974959 19.1449909,6.20345398 L21.615334,7.0139618 C21.6382606,7.02104114 21.6576172,7.03661058 21.6694463,7.05748689 L21.8270777,7.32099016 C21.8270777,7.32099016 21.8270777,7.32804828 21.8270777,7.32099016 L19.5296586,6.56694733 C19.5242932,6.56489634 19.5182312,6.56702009 19.5153189,6.57197106 C19.5124065,6.57692203 19.5134956,6.58325231 19.5178951,6.58694534 C20.029609,7.09748292 20.4860343,7.50450136 20.6589583,7.52214667 L19.0120629,11.2229559 C19.0071885,11.2339021 19.0104656,11.2467629 19.0199839,11.2540416 C19.0295022,11.2613203 19.0427723,11.2611132 19.0520589,11.2535411 C19.7813983,10.6488953 20.298994,9.02552691 21.0871511,8.59733411 C22.2293907,7.97386655 22.6693471,7.6080205 22.9504957,6.98455295 C23.2822275,6.24933178 23.7068912,5.01886563 23.7739434,4.97063513 C24.2244869,4.61772897 25.0314657,3.84251177 25.3726083,3.50842727 C25.3799239,3.49995446 25.3802566,3.48750046 25.3734039,3.47864907 C25.3665513,3.46979769 25.3544109,3.46700027 25.3443758,3.4719603 C24.8644234,3.7778123 23.6492499,4.55538221 23.583374,4.55538221 Z" id="Path" fill="#FFFFFF" fill-rule="nonzero"></path>
                    <path d="M36.1035568,16.7272122 C36.1035568,14.5269725 29.5549839,12.7433258 21.4769098,12.7433258 C13.3988358,12.7433258 6.8502629,14.5269725 6.8502629,16.7272122 L36.1035568,16.7272122 Z" id="Path" stroke="#FFFFFF" stroke-width="2" fill="#FF671D" stroke-linejoin="round"></path>
                </g>
            </g>
        </g>
    </g>
</svg>