<?xml version="1.0" encoding="UTF-8"?>
<svg width="45px" height="57px" viewBox="0 0 45 57" version="1.1" xmlns="http://www.w3.org/2000/svg" xmlns:xlink="http://www.w3.org/1999/xlink">
    <!-- Generator: Sketch 63.1 (92452) - https://sketch.com -->
    <title>1.0_landing/icn_business</title>
    <desc>Created with Sketch.</desc>
    <g id="Page-1" stroke="none" stroke-width="1" fill="none" fill-rule="evenodd">
        <g id="Artboard" transform="translate(-214.000000, -203.000000)">
            <g id="Group-7" transform="translate(153.000000, 198.777796)">
                <path d="M66.4182111,43.227193 C73.7852306,41.2137862 79.4714635,40.2070827 83.4769098,40.2070827 C87.482356,40.2070827 93.1685885,41.213786 100.535607,43.2271927 C103.144451,43.9401875 104.95382,46.3104139 104.95382,49.0149333 L104.95382,58.765951 L104.95382,58.765951 L62,58.765951 L62,49.0149301 C62.0000036,46.3104134 63.8093709,43.9401892 66.4182111,43.227193 Z" id="Rectangle-Copy-2" stroke="#FFFFFF" stroke-width="2" stroke-linecap="round" stroke-linejoin="round"></path>
                <g id="Group-5">
                    <rect id="Rectangle" x="0" y="0" width="64" height="64"></rect>
                    <rect id="Rectangle-Copy-3" x="57" y="0.222203799" width="64" height="64"></rect>
                    <g id="Group-6" transform="translate(9.000000, 5.000000)" stroke="#FFFFFF" stroke-width="2">
                        <path d="M62.2129736,16.1967123 C61.7278645,16.1967123 61.0002007,16.1967123 60.0299824,16.1967123 C59.1117336,16.1967123 58.3673458,15.4545633 58.3673458,14.5390761 L58.3673458,9.68457001 C58.3673458,6.93810841 60.6005091,4.71166137 63.3552557,4.71166137" id="Path-Copy-2"></path>
                        <path d="M83.7480738,11.0387996 L82.3446895,11.0387996 L66.0961147,11.0387996 C63.5949281,11.0387996 61.5673157,9.02439514 61.5673157,6.5395013 L61.5673157,5.71438328 C61.5673157,2.77378934 63.9667682,0.389966957 66.9266428,0.389966957 L78.7365289,0.389966957 C84.6562782,0.389966957 89.4551831,5.15761173 89.4551831,11.0387996 L89.4551831,17.2802258" id="Path-Copy-3" fill="#FF671D"></path>
                        <polygon id="Rectangle-Copy-4" fill="#FF671D" stroke-linejoin="round" points="66.5450702 29.7583405 74.3815836 29.7583405 74.3815836 36.2409064 70.4633269 38.6016407 66.5450702 36.2409064"></polygon>
                        <polygon id="Rectangle-Copy-5" fill="#FF671D" stroke-linejoin="round" points="74.3815836 29.7583405 82.2180971 29.7583405 82.2180971 36.2409064 78.2998403 38.6016407 74.3815836 36.2409064"></polygon>
                        <path d="M86.9846453,22.058312 C88.734621,22.058312 90.1532567,20.6439429 90.1532567,18.8992302 C90.1532567,17.1545176 88.734621,15.7401485 86.9846453,15.7401485" id="Path-Copy-8" fill="#FF671D"></path>
                        <path d="M58.6364463,22.058312 C60.386422,22.058312 61.8050577,20.6439429 61.8050577,18.8992302 C61.8050577,17.1545176 60.386422,15.7401485 58.6364463,15.7401485" id="Path-Copy-5" fill="#FF671D" transform="translate(60.220752, 18.899230) scale(-1, 1) translate(-60.220752, -18.899230) "></path>
                        <path d="M84.0611865,10.2331602 L64.7653579,10.2331602 C64.2130731,10.2331602 63.7130731,10.4570178 63.3511443,10.8189466 C62.9892155,11.1808754 62.7653579,11.6808754 62.7653579,12.2331602 L62.7653579,23.6994382 C62.7653579,26.9159209 64.0690951,29.8278995 66.176953,31.9357574 C68.2848109,34.0436153 71.1967895,35.3473525 74.4132722,35.3473525 C77.6297549,35.3473525 80.5417335,34.0436153 82.6495914,31.9357574 C84.7574493,29.8278995 86.0611865,26.9159209 86.0611865,23.6994382 L86.0611865,12.2331602 C86.0611865,11.6808754 85.8373289,11.1808754 85.4754001,10.8189466 C85.1134713,10.4570178 84.6134713,10.2331602 84.0611865,10.2331602 Z" id="Rectangle-Copy-6" fill="#FF671D"></path>
                    </g>
                </g>
            </g>
            <g id="Group-4" transform="translate(232.500000, 241.777796)" stroke="#FFFFFF" stroke-width="2">
                <g id="Group-2">
                    <path d="M2.09300427,3.77774953 L1.66027303,0.222203799 M6.12215284,0.222203799 L5.51680728,3.77774953" id="Shape"></path>
                    <polyline id="Path" points="7.28242587 15.6737165 5.73085534 3.77774953 2.07039728 3.77774953 0.5 15.6737165"></polyline>
                </g>
            </g>
            <path d="M219.418211,242.004989 C226.785231,239.991582 232.471463,238.984879 236.47691,238.984879 C240.482356,238.984879 246.168588,239.991582 253.535607,242.004989 C256.144451,242.717984 257.95382,245.08821 257.95382,247.792729 L257.95382,257.543747 L257.95382,257.543747 L215,257.543747 L215,247.792726 C215.000004,245.08821 216.809371,242.717985 219.418211,242.004989 Z" id="Rectangle-Copy-7" stroke="#FFFFFF" stroke-width="2" stroke-linecap="round" stroke-linejoin="round"></path>
            <rect id="Rectangle" x="153" y="198.777796" width="64" height="64"></rect>
            <g id="Group-6" transform="translate(162.000000, 203.777796)" stroke="#FFFFFF" stroke-width="2">
                <path d="M62.2129736,16.1967123 C61.7278645,16.1967123 61.0002007,16.1967123 60.0299824,16.1967123 C59.1117336,16.1967123 58.3673458,15.4545633 58.3673458,14.5390761 L58.3673458,9.68457001 C58.3673458,6.93810841 60.6005091,4.71166137 63.3552557,4.71166137" id="Path-Copy-6"></path>
                <path d="M83.7480738,11.0387996 L82.3446895,11.0387996 L66.0961147,11.0387996 C63.5949281,11.0387996 61.5673157,9.02439514 61.5673157,6.5395013 L61.5673157,5.71438328 C61.5673157,2.77378934 63.9667682,0.389966957 66.9266428,0.389966957 L78.7365289,0.389966957 C84.6562782,0.389966957 89.4551831,5.15761173 89.4551831,11.0387996 L89.4551831,17.2802258" id="Path-Copy-9" fill="#FF671D"></path>
                <polygon id="Rectangle-Copy-9" fill="#FF671D" stroke-linejoin="round" points="66.5450702 29.7583405 74.3815836 29.7583405 74.3815836 36.2409064 70.4633269 38.6016407 66.5450702 36.2409064"></polygon>
                <polygon id="Rectangle-Copy-10" fill="#FF671D" stroke-linejoin="round" points="74.3815836 29.7583405 82.2180971 29.7583405 82.2180971 36.2409064 78.2998403 38.6016407 74.3815836 36.2409064"></polygon>
                <path d="M86.9846453,22.058312 C88.734621,22.058312 90.1532567,20.6439429 90.1532567,18.8992302 C90.1532567,17.1545176 88.734621,15.7401485 86.9846453,15.7401485" id="Path-Copy-10" fill="#FF671D"></path>
                <path d="M58.6364463,22.058312 C60.386422,22.058312 61.8050577,20.6439429 61.8050577,18.8992302 C61.8050577,17.1545176 60.386422,15.7401485 58.6364463,15.7401485" id="Path-Copy-11" fill="#FF671D" transform="translate(60.220752, 18.899230) scale(-1, 1) translate(-60.220752, -18.899230) "></path>
                <path d="M84.0611865,10.2331602 L64.7653579,10.2331602 C64.2130731,10.2331602 63.7130731,10.4570178 63.3511443,10.8189466 C62.9892155,11.1808754 62.7653579,11.6808754 62.7653579,12.2331602 L62.7653579,23.6994382 C62.7653579,26.9159209 64.0690951,29.8278995 66.176953,31.9357574 C68.2848109,34.0436153 71.1967895,35.3473525 74.4132722,35.3473525 C77.6297549,35.3473525 80.5417335,34.0436153 82.6495914,31.9357574 C84.7574493,29.8278995 86.0611865,26.9159209 86.0611865,23.6994382 L86.0611865,12.2331602 C86.0611865,11.6808754 85.8373289,11.1808754 85.4754001,10.8189466 C85.1134713,10.4570178 84.6134713,10.2331602 84.0611865,10.2331602 Z" id="Rectangle-Copy-11" fill="#FF671D"></path>
                <path d="M63,15.2222038 L70.38937,15.2222038 C71.2788964,15.2222038 72,15.7436052 72,16.3867863 L72,19.0576213 C72,19.7008024 71.2788964,20.2222038 70.38937,20.2222038 L63,20.2222038" id="Path"></path>
                <path d="M77,15.2222038 L84.5,15.2222038 C85.3284271,15.2222038 86,15.7436052 86,16.3867863 L86,19.0576213 C86,19.7008024 85.3284271,20.2222038 84.5,20.2222038 L77,20.2222038 L77,20.2222038" id="Path-Copy-4" transform="translate(81.500000, 17.722204) scale(-1, 1) translate(-81.500000, -17.722204) "></path>
                <line x1="72" y1="17.7222038" x2="77" y2="17.7222038" id="Path-23"></line>
            </g>
        </g>
    </g>
</svg>