<?xml version="1.0" encoding="UTF-8"?>
<svg width="45px" height="57px" viewBox="0 0 45 57" version="1.1" xmlns="http://www.w3.org/2000/svg" xmlns:xlink="http://www.w3.org/1999/xlink">
    <!-- Generator: Sketch 63.1 (92452) - https://sketch.com -->
    <title>1.0_landing/icn_personal_hover</title>
    <desc>Created with Sketch.</desc>
    <g id="Page-1" stroke="none" stroke-width="1" fill="none" fill-rule="evenodd">
        <g id="Artboard" transform="translate(-157.000000, -319.000000)">
            <g id="Group-7" transform="translate(153.000000, 198.777796)">
                <path d="M9.41821111,159.227193 C16.7852306,157.213786 22.4714635,156.207083 26.4769098,156.207083 C30.482356,156.207083 36.1685885,157.213786 43.5356074,159.227193 C46.1444506,159.940187 47.9538197,162.310414 47.9538197,165.014933 L47.9538197,174.765951 L47.9538197,174.765951 L5,174.765951 L5,165.01493 C5.00000357,162.310413 6.80937091,159.940189 9.41821111,159.227193 Z" id="Rectangle-Copy-14" stroke="#FFFFFF" stroke-width="2" stroke-linecap="round" stroke-linejoin="round"></path>
                <g id="Group-5">
                    <rect id="Rectangle-Copy-16" x="0" y="116.222204" width="64" height="64"></rect>
                    <g id="Group-6" transform="translate(9.000000, 5.000000)">
                        <g id="Group-4-Copy-4" transform="translate(0.775839, 116.222204)">
                            <g id="Group-3" transform="translate(0.177885, 0.167763)">
                                <g id="Group-2">
                                    <g id="Group-12" transform="translate(0.189461, 0.000000)">
                                        <g id="Group" transform="translate(8.076923, 30.085675)"></g>
                                    </g>
                                </g>
                            </g>
                        </g>
                        <g id="Group-4-Copy-2" transform="translate(0.775839, 73.222204)">
                            <g id="Group-3" transform="translate(0.177885, 0.167763)"></g>
                        </g>
                        <path d="M5.21297364,132.196712 C4.72786448,132.196712 4.00020074,132.196712 3.02998242,132.196712 C2.11173357,132.196712 1.3673458,131.454563 1.3673458,130.539076 L1.3673458,125.68457 C1.3673458,122.938108 3.60050912,120.711661 6.35525567,120.711661" id="Path-Copy-15" stroke="#FFFFFF" stroke-width="2"></path>
                        <path d="M26.7480738,127.0388 L25.3446895,127.0388 L9.0961147,127.0388 C6.59492809,127.0388 4.56731572,125.024395 4.56731572,122.539501 L4.56731572,121.714383 C4.56731572,118.773789 6.96676819,116.389967 9.9266428,116.389967 L21.7365289,116.389967 C27.6562782,116.389967 32.4551831,121.157612 32.4551831,127.0388 L32.4551831,133.280226" id="Path-Copy-17" stroke="#FFFFFF" stroke-width="2" fill="#FF671D"></path>
                        <polygon id="Rectangle-Copy-18" stroke="#FFFFFF" stroke-width="2" fill="#FF671D" stroke-linejoin="round" points="9.54507021 145.75834 17.3815836 145.75834 17.3815836 152.240906 13.4633269 154.601641 9.54507021 152.240906"></polygon>
                        <polygon id="Rectangle-Copy-20" stroke="#FFFFFF" stroke-width="2" fill="#FF671D" stroke-linejoin="round" points="17.3815836 145.75834 25.2180971 145.75834 25.2180971 152.240906 21.2998403 154.601641 17.3815836 152.240906"></polygon>
                        <path d="M29.9846453,138.058312 C31.734621,138.058312 33.1532567,136.643943 33.1532567,134.89923 C33.1532567,133.154518 31.734621,131.740148 29.9846453,131.740148" id="Path-Copy-19" stroke="#FFFFFF" stroke-width="2" fill="#FF671D"></path>
                        <path d="M1.63644626,138.058312 C3.38642204,138.058312 4.8050577,136.643943 4.8050577,134.89923 C4.8050577,133.154518 3.38642204,131.740148 1.63644626,131.740148" id="Path-Copy-21" stroke="#FFFFFF" stroke-width="2" fill="#FF671D" transform="translate(3.220752, 134.899230) scale(-1, 1) translate(-3.220752, -134.899230) "></path>
                        <path d="M27.0611865,126.23316 L7.76535788,126.23316 C7.21307313,126.23316 6.71307313,126.457018 6.35114432,126.818947 C5.98921551,127.180875 5.76535788,127.680875 5.76535788,128.23316 L5.76535788,139.699438 C5.76535788,142.915921 7.0690951,145.827899 9.176953,147.935757 C11.2848109,150.043615 14.1967895,151.347353 17.4132722,151.347353 C20.6297549,151.347353 23.5417335,150.043615 25.6495914,147.935757 C27.7574493,145.827899 29.0611865,142.915921 29.0611865,139.699438 L29.0611865,128.23316 C29.0611865,127.680875 28.8373289,127.180875 28.4754001,126.818947 C28.1134713,126.457018 27.6134713,126.23316 27.0611865,126.23316 Z" id="Rectangle-Copy-22" stroke="#FFFFFF" stroke-width="2" fill="#FF671D"></path>
                        <ellipse id="Oval-Copy-2" fill="#FFFFFF" cx="17.5618137" cy="160.294329" rx="1.20694136" ry="1.20331146"></ellipse>
                        <ellipse id="Oval-Copy-3" fill="#FFFFFF" cx="17.5618137" cy="164.155825" rx="1.20694136" ry="1.20331146"></ellipse>
                    </g>
                </g>
            </g>
            <path d="M162.418211,358.004989 C169.785231,355.991582 175.471463,354.984879 179.47691,354.984879 C183.482356,354.984879 189.168588,355.991582 196.535607,358.004989 C199.144451,358.717984 200.95382,361.08821 200.95382,363.792729 L200.95382,373.543747 L200.95382,373.543747 L158,373.543747 L158,363.792726 C158.000004,361.08821 159.809371,358.717985 162.418211,358.004989 Z" id="Rectangle-Copy-24" stroke="#FF671D" stroke-width="2" stroke-linecap="round" stroke-linejoin="round"></path>
            <rect id="Rectangle-Copy-26" x="153" y="315" width="64" height="64"></rect>
            <rect id="Rectangle-Copy-8" x="153" y="272" width="64" height="64"></rect>
            <g id="Group-6" transform="translate(162.000000, 203.777796)">
                <g id="Group-4-Copy-6" transform="translate(0.775839, 116.222204)">
                    <g id="Group-3" transform="translate(0.177885, 0.167763)">
                        <g id="Group-2">
                            <g id="Group-12" transform="translate(0.189461, 0.000000)">
                                <g id="Group" transform="translate(8.076923, 30.085675)"></g>
                            </g>
                        </g>
                    </g>
                </g>
                <g id="Group-4-Copy-3" transform="translate(0.775839, 73.222204)">
                    <g id="Group-3" transform="translate(0.177885, 0.167763)"></g>
                </g>
                <path d="M5.21297364,132.196712 C4.72786448,132.196712 4.00020074,132.196712 3.02998242,132.196712 C2.11173357,132.196712 1.3673458,131.454563 1.3673458,130.539076 L1.3673458,125.68457 C1.3673458,122.938108 3.60050912,120.711661 6.35525567,120.711661" id="Path-Copy-24" stroke="#FF671D" stroke-width="2"></path>
                <path d="M26.7480738,127.0388 L25.3446895,127.0388 L9.0961147,127.0388 C6.59492809,127.0388 4.56731572,125.024395 4.56731572,122.539501 L4.56731572,121.714383 C4.56731572,118.773789 6.96676819,116.389967 9.9266428,116.389967 L21.7365289,116.389967 C27.6562782,116.389967 32.4551831,121.157612 32.4551831,127.0388 L32.4551831,133.280226" id="Path-Copy-26" stroke="#FF671D" stroke-width="2" fill="#3C3C3B"></path>
                <polygon id="Rectangle-Copy-27" stroke="#FF671D" stroke-width="2" fill="#3C3C3B" stroke-linejoin="round" points="9.54507021 145.75834 17.3815836 145.75834 17.3815836 152.240906 13.4633269 154.601641 9.54507021 152.240906"></polygon>
                <polygon id="Rectangle-Copy-29" stroke="#FF671D" stroke-width="2" fill="#3C3C3B" stroke-linejoin="round" points="17.3815836 145.75834 25.2180971 145.75834 25.2180971 152.240906 21.2998403 154.601641 17.3815836 152.240906"></polygon>
                <path d="M29.9846453,138.058312 C31.734621,138.058312 33.1532567,136.643943 33.1532567,134.89923 C33.1532567,133.154518 31.734621,131.740148 29.9846453,131.740148" id="Path-Copy-28" stroke="#FF671D" stroke-width="2" fill="#3C3C3B"></path>
                <path d="M1.63644626,138.058312 C3.38642204,138.058312 4.8050577,136.643943 4.8050577,134.89923 C4.8050577,133.154518 3.38642204,131.740148 1.63644626,131.740148" id="Path-Copy-30" stroke="#FF671D" stroke-width="2" fill="#3C3C3B" transform="translate(3.220752, 134.899230) scale(-1, 1) translate(-3.220752, -134.899230) "></path>
                <path d="M27.0611865,126.23316 L7.76535788,126.23316 C7.21307313,126.23316 6.71307313,126.457018 6.35114432,126.818947 C5.98921551,127.180875 5.76535788,127.680875 5.76535788,128.23316 L5.76535788,139.699438 C5.76535788,142.915921 7.0690951,145.827899 9.176953,147.935757 C11.2848109,150.043615 14.1967895,151.347353 17.4132722,151.347353 C20.6297549,151.347353 23.5417335,150.043615 25.6495914,147.935757 C27.7574493,145.827899 29.0611865,142.915921 29.0611865,139.699438 L29.0611865,128.23316 C29.0611865,127.680875 28.8373289,127.180875 28.4754001,126.818947 C28.1134713,126.457018 27.6134713,126.23316 27.0611865,126.23316 Z" id="Rectangle-Copy-31" stroke="#FF671D" stroke-width="2" fill="#3C3C3B"></path>
                <ellipse id="Oval-Copy-4" stroke="#FF671D" fill="#FF671D" cx="17.5618137" cy="160.294329" rx="1" ry="1"></ellipse>
                <ellipse id="Oval-Copy-5" stroke="#FF671D" fill="#FF671D" cx="17.5618137" cy="164.155825" rx="1" ry="1"></ellipse>
            </g>
        </g>
    </g>
</svg>