<?xml version="1.0" encoding="UTF-8"?>
<svg width="45px" height="57px" viewBox="0 0 45 57" version="1.1" xmlns="http://www.w3.org/2000/svg" xmlns:xlink="http://www.w3.org/1999/xlink">
    <!-- Generator: Sketch 63.1 (92452) - https://sketch.com -->
    <title>1.0_landing/icn_driver_hover</title>
    <desc>Created with Sketch.</desc>
    <g id="Page-1" stroke="none" stroke-width="1" fill="none" fill-rule="evenodd">
        <g id="Artboard" transform="translate(-85.000000, -319.000000)">
            <g id="Group-5" transform="translate(81.000000, 198.777796)">
                <g id="Group" transform="translate(5.000000, 5.000000)">
                    <path d="M4.41821111,154.227193 C11.7852306,152.213786 17.4714635,151.207083 21.4769098,151.207083 C25.482356,151.207083 31.1685885,152.213786 38.5356074,154.227193 C41.1444506,154.940187 42.9538197,157.310414 42.9538197,160.014933 L42.9538197,169.765951 L42.9538197,169.765951 L-5.32907052e-13,169.765951 L-5.32907052e-13,160.01493 C3.56888955e-06,157.310413 1.80937091,154.940189 4.41821111,154.227193 Z" id="Rectangle-Copy-12" stroke="#FF671D" stroke-width="2" stroke-linecap="round" stroke-linejoin="round"></path>
                    <polyline id="Path-Copy-12" stroke="#FF671D" stroke-width="2" stroke-linejoin="round" points="7.47690984 170.403098 7.47690984 162.613258 35.0065216 162.613258 35.0065216 170.403098"></polyline>
                    <path d="M7.53712303,162.32866 L12.6387398,158.567405 L28.102773,158.567405 M28.102773,158.567405 L30.5070407,158.567405 L34.9463084,162.551292" id="Shape-Copy" stroke="#FF671D" stroke-width="2" stroke-linecap="round" stroke-linejoin="round"></path>
                    <rect id="Rectangle-Copy-13" stroke="#FF671D" stroke-width="2" x="9.05939413" y="117.222204" width="24.8350314" height="33.4888899" rx="12.4175157"></rect>
                    <path d="M23.583374,120.777586 C21.4894642,120.777586 21.9505949,122.156273 21.9505949,122.156273 C21.6706227,122.06687 18.1039177,120.88934 17.5980856,120.722297 C17.5907952,120.719377 17.5824569,120.722011 17.5781668,120.728589 C17.5738766,120.735167 17.5748283,120.743859 17.5804402,120.749354 C17.6321998,120.809348 17.735719,120.926983 17.9027612,121.111671 C17.9151917,121.125615 17.9309859,121.136145 17.948639,121.142256 L18.0003986,121.159901 L20.9577522,122.12804 C20.9753984,122.132937 20.9902742,122.144837 20.9989246,122.160978 L21.1600851,122.432716 C21.1600851,122.432716 21.1600851,122.438598 21.1600851,122.432716 L18.2756654,121.491633 C18.2721536,121.490191 18.268111,121.491337 18.2658781,121.494407 C18.2636452,121.497477 18.2638007,121.501676 18.2662546,121.504573 L18.480351,121.739843 C18.5008536,121.76133 18.5262944,121.777483 18.5544613,121.786898 L21.2930131,122.685632 C21.3093752,122.690513 21.323259,122.701451 21.3318327,122.716217 L21.4929932,122.989131 C21.4929932,122.989131 21.4929932,122.996189 21.4929932,122.995013 L18.8685477,122.133922 C18.8685477,122.133922 18.8579606,122.139804 18.8614896,122.144509 L19.1085239,122.403307 C19.1182188,122.414179 19.1309028,122.421953 19.1449909,122.425658 L21.615334,123.236166 C21.6382606,123.243245 21.6576172,123.258814 21.6694463,123.279691 L21.8270777,123.543194 C21.8270777,123.543194 21.8270777,123.550252 21.8270777,123.543194 L19.5296586,122.789151 C19.5242932,122.7871 19.5182312,122.789224 19.5153189,122.794175 C19.5124065,122.799126 19.5134956,122.805456 19.5178951,122.809149 C20.029609,123.319687 20.4860343,123.726705 20.6589583,123.74435 L19.0120629,127.44516 C19.0071885,127.456106 19.0104656,127.468967 19.0199839,127.476245 C19.0295022,127.483524 19.0427723,127.483317 19.0520589,127.475745 C19.7813983,126.871099 20.298994,125.247731 21.0871511,124.819538 C22.2293907,124.19607 22.6693471,123.830224 22.9504957,123.206757 C23.2822275,122.471536 23.7068912,121.241069 23.7739434,121.192839 C24.2244869,120.839933 25.0314657,120.064716 25.3726083,119.730631 C25.3799239,119.722158 25.3802566,119.709704 25.3734039,119.700853 C25.3665513,119.692001 25.3544109,119.689204 25.3443758,119.694164 C24.8644234,120.000016 23.6492499,120.777586 23.583374,120.777586 Z" id="Path-Copy-13" fill="#FF671D" fill-rule="nonzero"></path>
                    <path d="M36.1035568,132.949416 C36.1035568,130.749176 29.5549839,128.96553 21.4769098,128.96553 C13.3988358,128.96553 6.8502629,130.749176 6.8502629,132.949416 L36.1035568,132.949416 Z" id="Path-Copy-14" stroke="#FF671D" stroke-width="2" stroke-linejoin="round"></path>
                </g>
            </g>
        </g>
    </g>
</svg>